<svg width="583" height="271" viewBox="0 0 583 271" fill="none" xmlns="http://www.w3.org/2000/svg">
<path d="M3.46289 270.293V213.489" stroke="#266554" stroke-width="5"/>
<path d="M283 159L288.183 174.661C290.857 182.74 299.574 187.122 307.653 184.448C310.327 183.563 312.708 181.962 314.536 179.819C320.543 172.775 331.122 171.935 338.165 177.942C340.179 179.66 341.758 181.83 342.771 184.275L374.34 260.41" stroke="#266554" stroke-width="5"/>
<path d="M564 248C572.837 248 580 240.837 580 232C580 223.163 572.837 216 564 216C555.163 216 548 223.163 548 232C548 240.837 555.163 248 564 248Z" stroke="#266554" stroke-width="5"/>
<path d="M354 8L367.844 48.2953L432.505 39.5377V69.9495" stroke="#266554" stroke-width="5"/>
<path d="M327 205C331.418 205 335 201.418 335 197C335 192.582 331.418 189 327 189C322.582 189 319 192.582 319 197C319 201.418 322.582 205 327 205Z" stroke="#266554" stroke-width="5"/>
<path d="M21 181C25.4183 181 29 177.418 29 173C29 168.582 25.4183 165 21 165C16.5817 165 13 168.582 13 173C13 177.418 16.5817 181 21 181Z" stroke="#266554" stroke-width="5"/>
<path d="M98.5 153C112.031 153 123 142.031 123 128.5C123 114.969 112.031 104 98.5 104C84.969 104 74 114.969 74 128.5C74 142.031 84.969 153 98.5 153Z" stroke="#266554" stroke-width="5"/>
<path d="M129 84C131.761 84 134 81.7614 134 79C134 76.2386 131.761 74 129 74C126.239 74 124 76.2386 124 79C124 81.7614 126.239 84 129 84Z" stroke="#266554" stroke-width="5"/>
<path d="M149 164C151.761 164 154 161.761 154 159C154 156.239 151.761 154 149 154C146.239 154 144 156.239 144 159C144 161.761 146.239 164 149 164Z" stroke="#266554" stroke-width="5"/>
<path d="M439 184C441.761 184 444 181.761 444 179C444 176.239 441.761 174 439 174C436.239 174 434 176.239 434 179C434 181.761 436.239 184 439 184Z" stroke="#266554" stroke-width="5"/>
<path d="M80.5828 77.2509C108.124 49.6528 143.689 29.9923 187.279 18.2695" stroke="#266554" stroke-width="5"/>
<path fill-rule="evenodd" clip-rule="evenodd" d="M166 122.849L217.631 96V154.97H191.816L166 122.849Z" stroke="#266554" stroke-width="5"/>
<path d="M265 122.904C335.146 109.256 399.503 124.094 458.069 167.419" stroke="#266554" stroke-width="5"/>
<path fill-rule="evenodd" clip-rule="evenodd" d="M368.967 156.54L395.144 212.244L414.472 204.854L368.967 156.54Z" stroke="#266554" stroke-width="5"/>
<path d="M59.1694 203.398L69.2389 193.328C75.7008 186.866 86.1775 186.866 92.6394 193.328C99.1013 199.79 109.578 199.79 116.04 193.328L120.256 189.112C128.521 180.847 141.879 180.715 150.306 188.815L153.984 192.35C160.368 198.487 170.488 198.387 176.749 192.125" stroke="#266554" stroke-width="5"/>
<path d="M459.048 74.3312L469.774 74.1439C476.658 74.0238 482.335 79.5065 482.455 86.39C482.576 93.2735 488.253 98.7563 495.137 98.6362L499.628 98.5578C508.432 98.4041 515.74 105.324 516.068 114.123L516.211 117.963C516.459 124.629 521.996 129.872 528.666 129.755" stroke="#266554" stroke-width="5"/>
<path fill-rule="evenodd" clip-rule="evenodd" d="M228 3H320L319.05 80.1968C319.036 81.3013 318.13 82.1856 317.025 82.172C316.589 82.1666 316.166 82.0185 315.821 81.7503L296.875 67.0002L228 62V3Z" stroke="#266554" stroke-width="5"/>
<path d="M333.5 5.5V83.7304" stroke="#266554" stroke-width="5"/>
<path d="M239.5 18.5L290.5 21.5" stroke="#266554" stroke-width="5"/>
<path d="M237.692 37.5L306.5 43.5" stroke="#266554" stroke-width="5"/>
<path fill-rule="evenodd" clip-rule="evenodd" d="M473.268 131.927L482.692 210.458L525.88 176.515L473.268 131.927Z" stroke="#266554" stroke-width="5"/>
<path d="M439.797 117.295L455.069 128.524" stroke="#266554" stroke-width="5"/>
<path fill-rule="evenodd" clip-rule="evenodd" d="M226.272 178.644L258.728 158.295L284.71 207.147L258.728 221.442L226.272 178.644Z" stroke="#266554" stroke-width="5"/>
<path d="M374.42 87.9983C392.539 90.5749 412.196 98.9254 433.39 113.05" stroke="#266554" stroke-width="5"/>
<path d="M209.596 181.976C207.683 199.682 213.803 212.251 227.956 219.682" stroke="#266554" stroke-width="5"/>
</svg>
