<svg width="115" height="43" viewBox="0 0 115 43" fill="none" xmlns="http://www.w3.org/2000/svg">
<path d="M40.8857 24.6465C41.3369 24.6465 41.7539 24.5542 42.1367 24.3696C42.5195 24.1851 42.834 23.9321 43.0801 23.6108C43.3262 23.2827 43.4663 22.9102 43.5005 22.4932H45.3052C45.271 23.1494 45.0488 23.7612 44.6387 24.3286C44.2354 24.8892 43.7056 25.3438 43.0493 25.6924C42.3931 26.0342 41.6719 26.2051 40.8857 26.2051C40.0518 26.2051 39.3237 26.0581 38.7017 25.7642C38.0864 25.4702 37.5737 25.0669 37.1636 24.5542C36.7603 24.0415 36.4561 23.4536 36.251 22.7905C36.0527 22.1206 35.9536 21.4131 35.9536 20.668V20.2373C35.9536 19.4922 36.0527 18.7881 36.251 18.125C36.4561 17.4551 36.7603 16.8638 37.1636 16.3511C37.5737 15.8384 38.0864 15.4351 38.7017 15.1411C39.3237 14.8472 40.0518 14.7002 40.8857 14.7002C41.7539 14.7002 42.5127 14.8779 43.1621 15.2334C43.8115 15.582 44.3208 16.0605 44.6899 16.6689C45.0659 17.2705 45.271 17.9541 45.3052 18.7197H43.5005C43.4663 18.2617 43.3364 17.8481 43.1108 17.479C42.8921 17.1099 42.5913 16.8159 42.2085 16.5972C41.8325 16.3716 41.3916 16.2588 40.8857 16.2588C40.3047 16.2588 39.8159 16.375 39.4194 16.6074C39.0298 16.833 38.7188 17.1406 38.4863 17.5303C38.2607 17.9131 38.0967 18.3403 37.9941 18.812C37.8984 19.2769 37.8506 19.752 37.8506 20.2373V20.668C37.8506 21.1533 37.8984 21.6318 37.9941 22.1035C38.0898 22.5752 38.2505 23.0024 38.4761 23.3853C38.7085 23.7681 39.0195 24.0757 39.4092 24.3081C39.8057 24.5337 40.2979 24.6465 40.8857 24.6465ZM46.9355 20.5757V20.3398C46.9355 19.54 47.0518 18.7983 47.2842 18.1147C47.5166 17.4243 47.8516 16.8262 48.2891 16.3203C48.7266 15.8076 49.2563 15.4111 49.8784 15.1309C50.5005 14.8438 51.1978 14.7002 51.9702 14.7002C52.7495 14.7002 53.4502 14.8438 54.0723 15.1309C54.7012 15.4111 55.2344 15.8076 55.6719 16.3203C56.1162 16.8262 56.4546 17.4243 56.687 18.1147C56.9194 18.7983 57.0356 19.54 57.0356 20.3398V20.5757C57.0356 21.3755 56.9194 22.1172 56.687 22.8008C56.4546 23.4844 56.1162 24.0825 55.6719 24.5952C55.2344 25.1011 54.7046 25.4976 54.0825 25.7847C53.4673 26.0649 52.77 26.2051 51.9907 26.2051C51.2114 26.2051 50.5107 26.0649 49.8887 25.7847C49.2666 25.4976 48.7334 25.1011 48.2891 24.5952C47.8516 24.0825 47.5166 23.4844 47.2842 22.8008C47.0518 22.1172 46.9355 21.3755 46.9355 20.5757ZM48.8325 20.3398V20.5757C48.8325 21.1294 48.8975 21.6523 49.0273 22.1445C49.1572 22.6299 49.3521 23.0605 49.6118 23.4365C49.8784 23.8125 50.21 24.1099 50.6064 24.3286C51.0029 24.5405 51.4644 24.6465 51.9907 24.6465C52.5103 24.6465 52.9648 24.5405 53.3545 24.3286C53.751 24.1099 54.0791 23.8125 54.3389 23.4365C54.5986 23.0605 54.7935 22.6299 54.9233 22.1445C55.0601 21.6523 55.1284 21.1294 55.1284 20.5757V20.3398C55.1284 19.793 55.0601 19.2769 54.9233 18.7915C54.7935 18.2993 54.5952 17.8652 54.3286 17.4893C54.0688 17.1064 53.7407 16.8057 53.3442 16.5869C52.9546 16.3682 52.4966 16.2588 51.9702 16.2588C51.4507 16.2588 50.9927 16.3682 50.5962 16.5869C50.2065 16.8057 49.8784 17.1064 49.6118 17.4893C49.3521 17.8652 49.1572 18.2993 49.0273 18.7915C48.8975 19.2769 48.8325 19.793 48.8325 20.3398ZM61.3115 17.2739V26H59.4146V14.9053H61.209L61.3115 17.2739ZM60.8604 20.0322L60.0708 20.0015C60.0776 19.2427 60.1904 18.542 60.4092 17.8994C60.6279 17.25 60.9355 16.686 61.332 16.2075C61.7285 15.729 62.2002 15.3599 62.7471 15.1001C63.3008 14.8335 63.9126 14.7002 64.5825 14.7002C65.1294 14.7002 65.6216 14.7754 66.0591 14.9258C66.4966 15.0693 66.8691 15.3018 67.1768 15.623C67.4912 15.9443 67.7305 16.3613 67.8945 16.874C68.0586 17.3799 68.1406 17.9985 68.1406 18.73V26H66.2334V18.7095C66.2334 18.1284 66.1479 17.6636 65.9771 17.3149C65.8062 16.9595 65.5566 16.7031 65.2285 16.5459C64.9004 16.3818 64.4971 16.2998 64.0186 16.2998C63.5469 16.2998 63.1162 16.3989 62.7266 16.5972C62.3438 16.7954 62.0122 17.0688 61.7319 17.4175C61.4585 17.7661 61.2432 18.166 61.0859 18.6172C60.9355 19.0615 60.8604 19.5332 60.8604 20.0322ZM72.9189 17.2739V26H71.022V14.9053H72.8164L72.9189 17.2739ZM72.4678 20.0322L71.6782 20.0015C71.6851 19.2427 71.7979 18.542 72.0166 17.8994C72.2354 17.25 72.543 16.686 72.9395 16.2075C73.3359 15.729 73.8076 15.3599 74.3545 15.1001C74.9082 14.8335 75.52 14.7002 76.1899 14.7002C76.7368 14.7002 77.229 14.7754 77.6665 14.9258C78.104 15.0693 78.4766 15.3018 78.7842 15.623C79.0986 15.9443 79.3379 16.3613 79.502 16.874C79.666 17.3799 79.748 17.9985 79.748 18.73V26H77.8408V18.7095C77.8408 18.1284 77.7554 17.6636 77.5845 17.3149C77.4136 16.9595 77.1641 16.7031 76.8359 16.5459C76.5078 16.3818 76.1045 16.2998 75.626 16.2998C75.1543 16.2998 74.7236 16.3989 74.334 16.5972C73.9512 16.7954 73.6196 17.0688 73.3394 17.4175C73.0659 17.7661 72.8506 18.166 72.6934 18.6172C72.543 19.0615 72.4678 19.5332 72.4678 20.0322ZM89.1714 24.103V18.3916C89.1714 17.9541 89.0825 17.5747 88.9048 17.2534C88.7339 16.9253 88.4741 16.6724 88.1255 16.4946C87.7769 16.3169 87.3462 16.228 86.8335 16.228C86.355 16.228 85.9346 16.3101 85.5723 16.4741C85.2168 16.6382 84.9365 16.8535 84.7314 17.1201C84.5332 17.3867 84.4341 17.6738 84.4341 17.9814H82.5371C82.5371 17.585 82.6396 17.1919 82.8447 16.8022C83.0498 16.4126 83.3438 16.0605 83.7266 15.7461C84.1162 15.4248 84.5811 15.1719 85.1211 14.9873C85.668 14.7959 86.2764 14.7002 86.9463 14.7002C87.7529 14.7002 88.4639 14.8369 89.0791 15.1104C89.7012 15.3838 90.1865 15.7974 90.5352 16.3511C90.8906 16.8979 91.0684 17.585 91.0684 18.4121V23.5801C91.0684 23.9492 91.0991 24.3423 91.1606 24.7593C91.229 25.1763 91.3281 25.5352 91.458 25.8359V26H89.479C89.3833 25.7812 89.3081 25.4907 89.2534 25.1284C89.1987 24.7593 89.1714 24.4175 89.1714 24.103ZM89.4995 19.2734L89.52 20.6064H87.6025C87.0625 20.6064 86.5806 20.6509 86.1567 20.7397C85.7329 20.8218 85.3774 20.9482 85.0903 21.1191C84.8032 21.29 84.5845 21.5054 84.4341 21.7651C84.2837 22.0181 84.2085 22.3154 84.2085 22.6572C84.2085 23.0059 84.2871 23.3237 84.4443 23.6108C84.6016 23.8979 84.8374 24.127 85.1519 24.2979C85.4731 24.4619 85.8662 24.5439 86.3311 24.5439C86.9121 24.5439 87.4248 24.4209 87.8691 24.1748C88.3135 23.9287 88.6655 23.6279 88.9253 23.2725C89.1919 22.917 89.3354 22.5718 89.356 22.2368L90.166 23.1494C90.1182 23.4365 89.9883 23.7544 89.7764 24.103C89.5645 24.4517 89.2808 24.7866 88.9253 25.1079C88.5767 25.4224 88.1597 25.6855 87.6743 25.8975C87.1958 26.1025 86.6558 26.2051 86.0542 26.2051C85.3022 26.2051 84.6426 26.0581 84.0752 25.7642C83.5146 25.4702 83.0771 25.0771 82.7627 24.585C82.4551 24.0859 82.3013 23.5288 82.3013 22.9136C82.3013 22.3188 82.4175 21.7959 82.6499 21.3447C82.8823 20.8867 83.2173 20.5073 83.6548 20.2065C84.0923 19.8989 84.6187 19.6665 85.2339 19.5093C85.8491 19.3521 86.5361 19.2734 87.2949 19.2734H89.4995ZM97.2617 24.2876L100.297 14.9053H102.235L98.2461 26H96.9746L97.2617 24.2876ZM94.729 14.9053L97.8564 24.3389L98.0718 26H96.8003L92.7808 14.9053H94.729Z" fill="#02271D"/>
<path d="M10.9001 9.73098C13.2342 7.90138 16.0222 7.38747 18.65 8.30244C21.2778 9.21745 23.53 11.4862 24.9108 14.6094C25.8242 16.677 26.3145 19.0265 26.3324 21.4217L26.353 23.9281C26.355 24.2168 26.2715 24.4943 26.1205 24.7001C25.8885 25.012 25.5384 25.1073 25.232 24.9418C24.9255 24.7763 24.7225 24.3823 24.7168 23.942L24.6961 21.4302C24.6419 15.1048 20.7542 10.0118 16.0121 10.054C11.2701 10.0963 7.46904 15.2577 7.52174 21.5831C7.57443 27.9086 11.461 33.0032 16.2031 32.9629L16.2867 32.9622L40.0856 32.76L40.1692 32.7594L42.0523 32.7433C42.2691 32.7383 42.4786 32.8517 42.6321 33.0571C42.787 33.2599 42.8753 33.5362 42.8777 33.825C42.8801 34.1139 42.7963 34.3916 42.6448 34.597C42.4946 34.805 42.2871 34.9218 42.0701 34.9205L39.2834 34.9442C38.9036 34.9474 38.5549 35.2207 38.3687 35.661C38.1824 36.1013 38.1869 36.6418 38.3803 37.0789C38.5738 37.516 38.9269 37.7832 39.3067 37.78L42.0934 37.7563C42.8721 37.7479 43.6148 37.327 44.1581 36.5863C44.7054 35.848 45.0084 34.8476 44.9998 33.807C44.9913 32.7663 44.672 31.7713 44.1126 31.0424C43.5568 30.3078 42.8056 29.8974 42.025 29.9023L40.1418 29.9183L40.0583 29.919L16.2634 30.1211L16.1797 30.1219C13.5644 30.1441 11.1893 28.0623 10.1625 24.8476C9.13547 21.6329 9.65886 17.9184 11.4885 15.4367C13.3181 12.9549 16.0936 12.1947 18.5203 13.5107C20.947 14.8267 22.5472 17.9597 22.5742 21.4482L22.5949 23.9601C22.608 25.5478 23.3372 26.9728 24.4422 27.5705C25.5471 28.168 26.81 27.8201 27.6417 26.6893C28.1878 25.9522 28.4905 24.954 28.4829 23.9153L28.4623 21.4035C28.4385 18.5076 27.8425 15.6677 26.7344 13.1707C25.0662 9.4007 22.3461 6.66295 19.173 5.56034C15.9999 4.45772 12.6342 5.08066 9.81704 7.29197L8.19898 8.54842C7.8137 8.81965 7.3353 8.63985 7.11055 8.13944C6.88579 7.63903 6.99342 6.99328 7.35542 6.67028L8.96551 5.40858C12.1621 2.90174 15.9807 2.19802 19.5796 3.45257C23.1785 4.7071 26.2622 7.81691 28.1509 12.0965C30.0463 16.3655 30.5897 21.4591 29.6607 26.2473C29.5625 26.9824 29.9093 27.6955 30.4532 27.8774C30.9972 28.0593 31.5517 27.6475 31.7207 26.9362C32.7914 21.4262 32.1701 15.5642 29.9943 10.6469C25.4657 0.400069 15.5842 -3.04902 7.92199 2.94264L7.89811 2.94284L6.28013 4.20993C4.92236 5.33031 4.48962 7.69664 5.30597 9.53693C6.12231 11.3772 7.88851 12.0168 9.28195 10.9768L10.8999 9.70976L10.9001 9.73098ZM5.88545 21.59C5.87901 20.8069 5.3979 20.1762 4.81085 20.1811C4.2238 20.1862 3.75312 20.825 3.75955 21.608C3.78548 24.4945 4.37991 27.3245 5.48322 29.8145C7.72562 34.9015 11.8291 38.0158 16.2443 37.9812L34.2468 37.8283C34.4637 37.8233 34.6731 37.9366 34.8266 38.142C35.0656 38.4508 35.1413 38.9211 35.0178 39.3314C34.8945 39.7417 34.5966 40.0104 34.2647 40.0108L16.2622 40.1638C13.8085 40.1901 11.3896 39.3573 9.24713 37.7485C2.51492 32.6519 0.127704 21.2616 3.91401 12.3023C4.1003 11.8634 4.09641 11.3242 3.90384 10.8878C3.71126 10.4514 3.35923 10.1841 2.98037 10.1867C2.60151 10.1892 2.25337 10.4612 2.06708 10.9001C-2.28612 21.2112 0.460049 34.3152 8.20409 40.1845C10.6687 42.0532 13.4563 43.0242 16.2855 42.9995L34.288 42.8466C35.0666 42.8381 35.8093 42.4173 36.3527 41.6766C36.9 40.9383 37.203 39.9379 37.1944 38.8973C37.1858 37.8566 36.8665 36.8615 36.3072 36.1326C35.7511 35.3985 35 34.9883 34.2195 34.9926L16.221 35.1454C12.566 35.184 9.1657 32.6118 7.30703 28.4022C6.39364 26.3345 5.90335 23.985 5.88545 21.59Z" fill="url(#paint0_linear_215_187)"/>
<defs>
<linearGradient id="paint0_linear_215_187" x1="38.6339" y1="21.3171" x2="-0.245478" y2="21.6365" gradientUnits="userSpaceOnUse">
<stop stop-color="#2F2E41"/>
<stop offset="1" stop-color="#266554"/>
</linearGradient>
</defs>
</svg>
